<svg xmlns="http://www.w3.org/2000/svg" xmlns:xlink="http://www.w3.org/1999/xlink" viewBox="0 0 132.11 154.83"><defs><style>.cls-1,.cls-2{fill:#90a6b7;}.cls-1{fill-rule:evenodd;}.cls-2{font-size:60px;font-family:MyriadPro-Regular, Myriad Pro;letter-spacing:0.01em;}.cls-3{letter-spacing:0em;}</style><symbol id="Vector_roet_2" data-name="Vector, roet 2" viewBox="0 0 160.54 177.34"><path class="cls-1" d="M68.91,1.88c.57-2.69-4.07-2.32-2.6,0C67.75,1.73,67.93,2.33,68.91,1.88ZM67.61,20.4c1.38.39,2.78.46,2,2.28,1.66-.39,3.27.7,4.55,1.62a7.66,7.66,0,0,1,5.53.65c.72-2.74,3.43-3.5,5.52-4.88-.56-1.56-.17-2.88,1.3-3.24.44-3.18-1.94-4.44-.65-7.48-3.27-.73-4.27-3.74-6.83-5.2a1.61,1.61,0,0,1-1.62,1.3c-.88-.2-.81-1.35-2-1.3-.44,1.53-2.15,1.95-3.9,1.3a10,10,0,0,1-4.87,4.88c1.69,1.53-.15,3.85-1,4.87C66.32,17.34,67.89,17.81,67.61,20.4ZM122.85,11a4.48,4.48,0,0,0,5.85-4.23c-2.62-.53-5.6,1-6.18,3.58C122.78,10.4,122.9,10.6,122.85,11Zm29.24,12.67c.07-1.19.45-1.25,0-2.27-1.8,0-2.73-1.74-4.55-2.28s-4,.3-5.2-1.3c-.58,1.25-2,1.57-3.57,1-.44,2.7-3.76,2.51-3.57,5.84a1.85,1.85,0,0,0-1.3.33c-.25,1,.89.62.65,1.62s-1.62.77-1.63,1.95c1.93.67,2,3.19,2.6,5.2,2,.75,2.49,2.92,4.55,3.58-2.6,1-4.78,2.36-4.87,5.85,7,3.49,7.46-8.38,14.94-6.5,1.49-3.41,5.06-6.42,2.93-10.73.4-.78,1.63-.74,1.62-2C153.91,23.78,152.33,24.38,152.09,23.65ZM31.55,59.07c-1.85-.43-3.38-1.18-5.2-1.63C26.43,59.42,30.26,59.37,31.55,59.07ZM157,85.71c.89,1.16,3.56.66,3.57-1C159.8,83.05,156.92,83.86,157,85.71ZM45.52,140.62c-1.39-.2-1.33,1.06-2.6,1-1.53-.53-1.66-2.46-2.27-3.89-1.33-.25-1.12,1-2.6.65-1-.45-1.35-1.47-1.95-2.28-3,.6-3.64-1.12-5.2-1.95-.57.51-.68,1.49-1.63,1.63-3.1-1.3-3.47,2.78-6.82,1.3-1.07,3.7-3.94,5.8-8.12,5.52-.12,2,2.19,1.49,2.6,2.92.56,2.84-1,3.52-1.3,5.53a20.33,20.33,0,0,1,2.27,7.8c1.68-.06,2,1.27,2.6,2.27,1.73-.22,2.84.19,3.25,1.3.35,1.76-.66,2.16-.65,3.57,1.54-.73,2.74-1.81,4.87-2,1.44,1.06,2.39,2.6,5.53,2a2.43,2.43,0,0,1,1.62-2c1,.42.87,2,2.28,2,1.07-.64-.54-3.68,1.62-3.9,1.36-.06,1,1.6,2.6,1.3a6.2,6.2,0,0,0,0-3.57c2.14-1.32,2.61,1.6,3.9,1,0-1.41-1.62-1.2-1.63-2.6,1.49-2-.48-5.83,1.63-7.48,1.44-.72,6.13,1,8.12-.65C47.12,151.83,41.94,146.06,45.52,140.62Zm73.76-.65c1.62,2.36,4.19.73,7.79,1.3C126.16,139.17,121.79,139.47,119.28,140ZM53.64,153c2.29.41,4.69.72,7.15,1C59.81,152.42,55.55,152.47,53.64,153ZM4.58,162.06c-1.25-2.43-4.28-.52-4.55,1.3-.34,2.29,2.23,2.89,2.27,4.88,4.3,1.4,4-3.86,5.85-5.85-.17-.48-.48-.82-.65-1.3C6,160.85,5.37,161.55,4.58,162.06ZM117,166.94c.08,1.85,3.29,2,4.22,1.95C120.66,167.4,118.69,167.31,117,166.94Zm-11,10.39a16.73,16.73,0,0,0-3.25-7.14A17.73,17.73,0,0,0,106,177.33ZM138.44,48v-1.3c-1.81-.59-1.52-.36-3.24.65-1.22-.92-2.09-.22-3.25-1-.55,1.41-1.48,2.43-3.9,2-1.13,2.69-4.24,4.67-4.23,8.13,0,1.81,1.91,3.62.65,5.19C119.09,56,106.36,62,99.78,60c.83-2.52,2.08-4.64,2.92-7.15,1.21-.32,2.66-1.73,1.63-3.25-4.36,1.49-4.25,7.45-8.77,8.78-1.76-2-3.73-2.53-5.85-4.55-.24-4.77-2.52-7.11-4.23-10.08-.7-1.22-.44-2.94-2.27-2.92a1.62,1.62,0,0,1-1,1c-.25,1.88.91,2.35.65,4.23-3.34,1.82-9-.5-12.67-2.28-.39,2,.74,2.52.65,4.23-3.39,1.72-5.53-.78-8.77.65-1.79-1.14-2.47-3.38-4.87-3.9C55.05,42.93,54.74,39.23,52,38c-.08,2.22,1,2.46,1.95,3.89,1.08,1.63,2.11,4.46,3.25,5.85,1.47,1.82,3.37,2.44,3.25,4.23-.17,2.45-3,2.58-5.2,3.9-2,9-12.3,6.22-19.5,3.9,4.2,2.18,9.7,3.08,13.32,5.84a22.58,22.58,0,0,0-6.17,6.83c-1.91-.15-2.39-1.73-4.87-1.3-.29,1.8,1.75,1.28,2.27,2.27-5,1.16-7.11-3.24-12.67-2.27-.08-.47-.54-.55-.65-1-.22-1.19.7-1.24.65-2.27a4.83,4.83,0,0,1-2.27-4.55c-2.31-1.06-4.26-2.46-4.56-5.52-1.59-.3-.87,1.72-2.59,1.3-.88-2.71-2.49-.89-4.88-2-.38.48-.4,1.33-1,1.62-3.51-.8-3.53,1.89-5.53,2.6C4.65,60.52,3.6,58.73,1,59.72c.08,1.75,3.06.62,3.57,1.94-1.19,3-2.05,6.41-3.57,9.1A3.93,3.93,0,0,1,2.3,75.64c2,1.85,4.06,4,4.88,6.17,1.19.21,1.25-.7,2.27-.65a4.5,4.5,0,0,1,2.28,2.93c3.16-1.71,6.69-1.54,10.07-2.28.54-.43.11-1.84.65-2.28a7.75,7.75,0,0,0,2.6-.65c.83-.41-.3-1.59.33-1.62,4.45.6,11.45-.05,14.94,2.92,1,3.5,1.76,7,0,10.4-.56.41-2.16-.25-3.57,0-.83-.25-.56-1.61-1.63-1.62-5.68,1-9.59,3.84-11.37,8.77a29,29,0,0,1,.65,5.52c1.55,3.22,5,4.52,7.15,7.15.66-1.31,3.11-1.1,4.22-.32,3.66-1.87,7.24-3.81,8.45-8.12,4.87,0,5,4.72,8.12,6.49-.88,4.86-2.37,9.11-3.57,13.65,2.39-1.92,3.28-5.9,3.9-10.4,1.35-.38,2.27-1.19,3.57-1.62.82.8,2.2,1,2.28,2.6,0,1.22-1.19,1.19-1.3,2.27,3.77-.42,9.85-.77,9.42,5.2,1.86.56,1.22-1.37,2.6-1.3,3.08,2.25,3.76,11.49,2,14.62-2-2.42-1.69-6.25-5.53-5.85s-4.52,5.89-1.95,9.1c3.33,1.1,6.29,3.22,8.13-.65,3.43,3,1.27,10.38-2,12.35-1.33.29-2.63.62-2.93,2,.26.07.38.27.33.65,1.16.67,3.51.17,5.2.32.88,1.61,2.15,2.83,2.27,5.2-.91,1.05-3.66,2-2.92,3.57.85-1.65,4.39-2.13,6.17-1a31.13,31.13,0,0,0,.65,3.25c2.34.87,4.2,3,7.15,2.27.84,1,.44,3.25,1.62,3.9,1.88.15,1.31-2.16,3.25-1.95.76,1-.33,3.8,1.63,3.58,1.31-.42.72-2.75,1.62-3.58,2.72-.71,4.3.06,6.82,0,.38.49.41,1.33,1,1.63.19-.58-1-1.35,0-1.63,1.36,0,1.45,1.37,3.25,1,0-1.39-.65-2.38,0-3.58,6.24-.36,6.84-6.37,10.07-9.74,4-.73,6.63,1.6,9.1,1.3-1.15-.69-3-.69-3.58-1.95.69-.87,2.38-1.23,1.63-2.6-2.07-.12-2.71,1.18-3.9,1.95-1-.7-3.11-.36-3.57-1.63-.38-2.43,1.09-3,2-4.22-.26-1.59-1.35-2.33-1.3-4.22.22-1.3,2.37-.66,2.27-2.28-.09-1.32-2.12-.69-2.92-1.3-.41-2.38.17-2.62.32-4.87-2.19-.63-4.14-1.49-3.9-4.55-2.55-.37-4.78-1.06-4.55-4.23-.59-.81-2.13-.68-2.6-1.62.38-.11,1.12-1.42.33-1.63-.73,2-4.47.52-5.53-.32-1.26.25-1.26,1.77-2.92,1.62-.14-.61-.7-.81-.65-1.62,2.26-1.53,6.71-.88,9.1-2.28,0-3.48-1.66-6.92.32-10.39.33,0,.39-.26.65-.33a2.86,2.86,0,0,0,2.6.65c2.85,4,7.83,4.14,11.7,6.83-2.08-3.78-10.95-3.56-9.75-11.7-2.12-.5-1.68,2.93-3.25,2,.73-2.63,3.58-3.14,4.88-5.2,7.85-2.27,13,4.88,20.47,2.27,2.19-9-14-7.11-14.62-13.64-.37-4,3.27-2.8,5.84-3.9-.79-2.58-4.64-.58-5.84-2.27-.15-2.86,2.62-2.79,4.22-3.91-.53-3.16,2-3.39,3.25-5.52-.79-1.7-3.8-1.19-4.23-3.25,1.77-2.57,4.31-8.07,8.45-5.2,1.86-1.49,3.14.05,4.55,1.3,1.16-1.44,2.44-.69,4.23-.32,2.16-2.81,7.39-4.95,5.52-9.75.11-1.3,1.34-1.47,1.3-2.92C142.24,52.67,142,48.72,138.44,48Zm-51.33,74.4c1-.31,3-.11,2.92,1.63C88.84,124.83,87.3,123.67,87.11,122.42Zm21.44-15.59c1.52.54,1.5,2.61,2.28,3.9C109.23,110.32,106.86,108.52,108.55,106.83ZM65.66,124.05c-2.47,1.54-5.85,3.9-6.82,5.85C61.22,128.06,64.05,126.66,65.66,124.05ZM54.29,150.37c.67-.59,4.81.7,5.52-1C57.84,149.38,54,149.2,54.29,150.37Z"/></symbol></defs><title>ni_logo</title><g id="Laag_2" data-name="Laag 2"><g id="Laag_1-2" data-name="Laag 1"><text class="cls-2" transform="translate(0 139.83)">N<tspan class="cls-3" x="40.08" y="0">i</tspan></text><use id="Vector_roet_2-3" data-name="Vector, roet 2" width="160.54" height="177.33" transform="translate(29.41) scale(0.64)" xlink:href="#Vector_roet_2"/></g></g></svg>