<svg xmlns="http://www.w3.org/2000/svg" xmlns:xlink="http://www.w3.org/1999/xlink" viewBox="0 0 132.11 154.83"><defs><style>.cls-1{fill-rule:evenodd;}.cls-2{font-size:60px;fill:#1d1d1b;font-family:MyriadPro-Regular, Myriad Pro;letter-spacing:0.01em;}.cls-3{letter-spacing:0em;}</style><symbol id="Vector_roet" data-name="Vector, roet" viewBox="0 0 160.54 177.34"><path class="cls-1" d="M68.91,1.88c.56-2.69-4.08-2.32-2.6,0C67.75,1.73,67.93,2.33,68.91,1.88ZM67.61,20.4c1.38.39,2.77.46,2,2.27,1.66-.38,3.27.71,4.55,1.62a7.64,7.64,0,0,1,5.52.65c.73-2.74,3.43-3.5,5.52-4.87-.55-1.57-.17-2.89,1.3-3.25.44-3.17-1.94-4.44-.65-7.47-3.27-.73-4.27-3.75-6.82-5.2a1.62,1.62,0,0,1-1.62,1.3c-.88-.2-.81-1.36-2-1.3-.44,1.53-2.15,1.95-3.9,1.3a10,10,0,0,1-4.87,4.87c1.69,1.53-.14,3.85-1,4.87C66.32,17.34,67.89,17.81,67.61,20.4ZM122.85,11a4.47,4.47,0,0,0,5.85-4.23c-2.61-.53-5.6,1-6.17,3.57C122.78,10.4,122.9,10.6,122.85,11Zm29.24,12.67c.07-1.19.45-1.25,0-2.27-1.8,0-2.73-1.74-4.55-2.27s-4,.3-5.2-1.3c-.58,1.25-2,1.57-3.57,1-.44,2.7-3.76,2.52-3.57,5.85a1.82,1.82,0,0,0-1.3.32c-.24,1,.89.63.65,1.62s-1.61.77-1.62,2c1.93.67,2,3.18,2.6,5.2,2,.75,2.49,2.92,4.55,3.58-2.6,1-4.78,2.36-4.87,5.85,7,3.49,7.47-8.37,14.95-6.5,1.49-3.41,5.06-6.41,2.92-10.72.41-.79,1.64-.75,1.62-2C153.91,23.78,152.33,24.38,152.09,23.65ZM31.55,59.07c-1.85-.42-3.37-1.17-5.2-1.62C26.43,59.42,30.26,59.37,31.55,59.07ZM157,85.71c.89,1.16,3.57.66,3.57-1C159.8,83,156.92,83.86,157,85.71ZM45.52,140.62c-1.39-.2-1.33,1.06-2.6,1-1.53-.53-1.65-2.46-2.27-3.9-1.33-.24-1.12,1-2.6.65-1-.44-1.35-1.47-1.95-2.27-3,.59-3.64-1.12-5.2-2-.57.51-.67,1.49-1.62,1.63-3.11-1.3-3.47,2.79-6.82,1.3-1.07,3.71-3.94,5.8-8.12,5.52-.12,2,2.2,1.49,2.6,2.92.57,2.84-1,3.52-1.3,5.52a20.28,20.28,0,0,1,2.28,7.8c1.68-.06,2,1.27,2.6,2.27,1.73-.22,2.84.19,3.25,1.3.36,1.76-.66,2.16-.65,3.57,1.54-.74,2.74-1.81,4.88-1.95,1.43,1.06,2.38,2.6,5.52,1.95A2.44,2.44,0,0,1,35.12,164c1,.42.87,1.95,2.27,1.95,1.08-.65-.53-3.69,1.62-3.9,1.36-.06,1,1.6,2.6,1.3a6.12,6.12,0,0,0,0-3.57c2.14-1.32,2.61,1.6,3.9,1,0-1.4-1.62-1.2-1.62-2.6,1.48-2-.48-5.83,1.63-7.47,1.44-.72,6.13,1,8.12-.65C47.12,151.83,41.94,146.06,45.52,140.62Zm73.76-.65c1.62,2.36,4.19.73,7.8,1.3C126.16,139.17,121.79,139.47,119.28,140ZM53.64,153c2.29.42,4.69.73,7.15,1C59.81,152.42,55.55,152.47,53.64,153Zm-49.06,9.1c-1.25-2.44-4.28-.53-4.55,1.3-.34,2.28,2.23,2.89,2.27,4.87,4.29,1.4,3.95-3.86,5.85-5.85-.17-.48-.48-.82-.65-1.3C6,160.85,5.37,161.55,4.58,162.06ZM117,166.94c.08,1.85,3.29,2,4.22,2C120.66,167.4,118.69,167.31,117,166.94Zm-11,10.4a16.87,16.87,0,0,0-3.25-7.15A17.77,17.77,0,0,0,106,177.33ZM138.44,48v-1.3c-1.81-.59-1.52-.35-3.25.65-1.22-.92-2.09-.22-3.25-1-.55,1.4-1.47,2.43-3.9,2-1.13,2.69-4.24,4.67-4.22,8.12,0,1.82,1.9,3.62.65,5.2C119.09,56,106.36,62,99.78,60c.83-2.52,2.08-4.64,2.92-7.15,1.21-.32,2.65-1.73,1.63-3.25-4.36,1.48-4.25,7.45-8.77,8.77-1.76-2-3.73-2.52-5.85-4.55-.24-4.77-2.51-7.11-4.22-10.07-.71-1.22-.44-2.95-2.27-2.92a1.64,1.64,0,0,1-1,1c-.26,1.88.9,2.35.65,4.23-3.34,1.82-9-.5-12.67-2.27-.39,2,.74,2.51.65,4.22-3.39,1.72-5.53-.77-8.77.65-1.79-1.13-2.47-3.38-4.87-3.9C55,42.93,54.74,39.23,52,37.95c-.08,2.22,1,2.47,2,3.9,1.08,1.63,2.12,4.46,3.25,5.85,1.48,1.82,3.37,2.43,3.25,4.22-.17,2.46-3,2.58-5.2,3.9-2,9-12.3,6.23-19.5,3.9,4.2,2.19,9.7,3.08,13.32,5.85a22.43,22.43,0,0,0-6.17,6.82c-1.91-.15-2.39-1.72-4.87-1.3-.29,1.8,1.75,1.28,2.27,2.27-5,1.16-7.11-3.24-12.67-2.27-.08-.46-.54-.55-.65-1-.21-1.19.7-1.25.65-2.27a4.85,4.85,0,0,1-2.27-4.55c-2.3-1.06-4.26-2.46-4.55-5.52-1.59-.29-.88,1.72-2.6,1.3-.88-2.7-2.48-.89-4.87-2-.38.49-.4,1.33-1,1.63-3.51-.8-3.53,1.89-5.52,2.6C4.65,60.52,3.6,58.73,1,59.72c.09,1.75,3.06.62,3.57,1.95-1.19,3-2,6.4-3.57,9.1a3.92,3.92,0,0,1,1.3,4.87c2,1.86,4.06,4,4.87,6.17,1.19.21,1.25-.7,2.27-.65a4.49,4.49,0,0,1,2.28,2.93c3.16-1.7,6.69-1.54,10.07-2.28.54-.43.11-1.84.65-2.27a8.21,8.21,0,0,0,2.6-.65c.83-.41-.3-1.59.33-1.62,4.45.6,11.46,0,14.94,2.92,1,3.5,1.76,7,0,10.4-.56.4-2.16-.25-3.57,0-.83-.25-.55-1.62-1.62-1.62-5.68,1-9.59,3.84-11.37,8.77a28.77,28.77,0,0,1,.65,5.52c1.55,3.21,5,4.51,7.15,7.15.66-1.31,3.11-1.11,4.22-.32,3.65-1.87,7.24-3.81,8.45-8.12,4.87,0,5,4.72,8.12,6.5-.88,4.85-2.37,9.11-3.57,13.65,2.39-1.92,3.29-5.9,3.9-10.4,1.35-.38,2.28-1.19,3.57-1.62.82.8,2.2,1.05,2.28,2.6,0,1.22-1.19,1.19-1.3,2.27,3.78-.42,9.85-.77,9.42,5.2,1.86.56,1.22-1.37,2.6-1.3,3.08,2.25,3.76,11.49,2,14.62-1.95-2.42-1.69-6.25-5.52-5.85s-4.52,5.89-1.95,9.1c3.32,1.1,6.29,3.22,8.12-.65,3.44,3,1.27,10.38-2,12.35-1.33.29-2.63.62-2.92,1.95.25.07.38.27.32.65,1.17.68,3.51.17,5.2.33.89,1.61,2.16,2.83,2.28,5.2-.91,1-3.66,2-2.92,3.57.85-1.66,4.39-2.14,6.17-1a30.59,30.59,0,0,0,.65,3.25c2.34.87,4.2,3,7.15,2.27.84,1,.44,3.24,1.62,3.9,1.88.15,1.31-2.16,3.25-2,.76,1-.33,3.8,1.63,3.57,1.31-.42.72-2.74,1.63-3.57,2.72-.71,4.3.06,6.82,0,.38.49.4,1.33,1,1.63.19-.58-1-1.35,0-1.62,1.36,0,1.45,1.37,3.25,1,0-1.39-.65-2.38,0-3.57,6.24-.37,6.84-6.37,10.07-9.75,4-.72,6.63,1.6,9.1,1.3-1.15-.69-3-.68-3.57-2,.68-.87,2.38-1.22,1.62-2.6-2.07-.12-2.71,1.19-3.9,1.95-1-.7-3.11-.36-3.57-1.62-.37-2.43,1.09-3,1.95-4.22-.25-1.59-1.35-2.33-1.3-4.22.22-1.29,2.38-.66,2.28-2.28-.09-1.32-2.12-.69-2.92-1.3-.41-2.38.17-2.62.32-4.87-2.2-.62-4.15-1.49-3.9-4.55-2.55-.37-4.79-1.06-4.55-4.22-.59-.82-2.13-.68-2.6-1.62.37-.1,1.12-1.42.32-1.62-.72,2-4.47.51-5.52-.32-1.27.25-1.26,1.77-2.92,1.62-.14-.62-.7-.82-.65-1.62,2.26-1.53,6.71-.87,9.1-2.27,0-3.48-1.66-6.92.33-10.4.33,0,.39-.26.65-.32a2.87,2.87,0,0,0,2.6.65c2.84,4,7.83,4.13,11.7,6.82-2.08-3.78-10.95-3.56-9.75-11.7-2.12-.5-1.68,2.93-3.25,1.95.73-2.63,3.58-3.14,4.87-5.2,7.85-2.27,13,4.88,20.47,2.27,2.19-9-14-7.12-14.62-13.65-.37-4,3.27-2.8,5.85-3.9-.79-2.58-4.64-.58-5.85-2.27-.14-2.85,2.63-2.79,4.22-3.9-.53-3.17,2-3.4,3.25-5.52-.79-1.7-3.79-1.19-4.22-3.25,1.77-2.57,4.31-8.07,8.45-5.2,1.86-1.5,3.14,0,4.55,1.3,1.16-1.45,2.44-.69,4.22-.32,2.16-2.81,7.39-5,5.52-9.75.11-1.3,1.34-1.47,1.3-2.93C142.24,52.67,142,48.72,138.44,48ZM87.11,122.42c1-.31,3-.11,2.92,1.63C88.84,124.83,87.3,123.67,87.11,122.42Zm21.45-15.6c1.52.54,1.5,2.62,2.27,3.9C109.23,110.32,106.86,108.52,108.55,106.83ZM65.66,124c-2.47,1.54-5.85,3.9-6.82,5.85C61.22,128.06,64,126.66,65.66,124ZM54.29,150.37c.67-.59,4.81.7,5.52-1C57.84,149.38,54,149.2,54.29,150.37Z"/></symbol></defs><title>ni_logo</title><g id="Laag_2" data-name="Laag 2"><g id="Laag_1-2" data-name="Laag 1"><text class="cls-2" transform="translate(0 139.83)">N<tspan class="cls-3" x="40.08" y="0">i</tspan></text><use width="160.54" height="177.33" transform="translate(29.41) scale(0.64)" xlink:href="#Vector_roet"/></g></g></svg>